<?xml version="1.0" encoding="utf-8"?>
<!-- Generator: Adobe Illustrator 27.5.0, SVG Export Plug-In . SVG Version: 6.00 Build 0)  -->
<svg version="1.1" id="_x31_" xmlns="http://www.w3.org/2000/svg" xmlns:xlink="http://www.w3.org/1999/xlink" x="0px" y="0px"
	 viewBox="0 0 400 400" style="enable-background:new 0 0 400 400;" xml:space="preserve">
<g>
	<defs>
		<rect id="SVGID_1_" width="400" height="400"/>
	</defs>
	<clipPath id="SVGID_00000076585307068846075820000008560466797927614382_">
		<use xlink:href="#SVGID_1_"  style="overflow:visible;"/>
	</clipPath>
	
		<radialGradient id="SVGID_00000027594259313332170440000014820372556501842820_" cx="200" cy="200" r="297.07" gradientUnits="userSpaceOnUse">
		<stop  offset="0" style="stop-color:#FFFFFF"/>
		<stop  offset="0.2945" style="stop-color:#FBFBFB"/>
		<stop  offset="0.5986" style="stop-color:#EFF0EE"/>
		<stop  offset="0.8267" style="stop-color:#E1E2E0"/>
		<stop  offset="0.8568" style="stop-color:#DCDDDB"/>
		<stop  offset="0.8948" style="stop-color:#CCCDCB"/>
		<stop  offset="0.937" style="stop-color:#B2B4B2"/>
		<stop  offset="0.982" style="stop-color:#8E908F"/>
		<stop  offset="1" style="stop-color:#7E807F"/>
	</radialGradient>
	
		<rect style="clip-path:url(#SVGID_00000076585307068846075820000008560466797927614382_);fill:url(#SVGID_00000027594259313332170440000014820372556501842820_);" width="400" height="400"/>
	<g style="clip-path:url(#SVGID_00000076585307068846075820000008560466797927614382_);">
		
			<linearGradient id="SVGID_00000152234662291824600670000001512740740784129457_" gradientUnits="userSpaceOnUse" x1="-5902.2847" y1="-2719.7915" x2="-5720.8228" y2="-2735.3201" gradientTransform="matrix(0.4727 -0.8812 -0.8812 -0.4727 406.923 -6018.5518)">
			<stop  offset="0" style="stop-color:#290000"/>
			<stop  offset="0.4847" style="stop-color:#B82A2F"/>
			<stop  offset="0.8444" style="stop-color:#550D0F"/>
			<stop  offset="1" style="stop-color:#290000"/>
		</linearGradient>
		<polygon style="fill:url(#SVGID_00000152234662291824600670000001512740740784129457_);" points="52.508,494.694 82.653,296.476 
			63.07,306.095 44.163,483.847 		"/>
		
			<linearGradient id="SVGID_00000124130284450462111470000002205289242317940159_" gradientUnits="userSpaceOnUse" x1="-5831.2896" y1="-2753.8394" x2="-5723.4268" y2="-2763.0696" gradientTransform="matrix(0.4727 -0.8812 -0.8812 -0.4727 406.923 -6018.5518)">
			<stop  offset="0" style="stop-color:#290000"/>
			<stop  offset="0.3929" style="stop-color:#671214"/>
			<stop  offset="0.8031" style="stop-color:#A12327"/>
			<stop  offset="1" style="stop-color:#B82A2F"/>
		</linearGradient>
		<polygon style="fill:url(#SVGID_00000124130284450462111470000002205289242317940159_);" points="146.791,452.137 82.653,296.476 
			63.07,306.095 76.697,422.098 		"/>
		
			<linearGradient id="SVGID_00000039815188668729721170000015272369268699783870_" gradientUnits="userSpaceOnUse" x1="-5826.792" y1="-2808.6938" x2="-5607.5176" y2="-2827.4583" gradientTransform="matrix(0.4727 -0.8812 -0.8812 -0.4727 406.923 -6018.5518)">
			<stop  offset="0" style="stop-color:#290000"/>
			<stop  offset="0.3929" style="stop-color:#671214"/>
			<stop  offset="0.8031" style="stop-color:#A12327"/>
			<stop  offset="1" style="stop-color:#B82A2F"/>
		</linearGradient>
		<polygon style="fill:url(#SVGID_00000039815188668729721170000015272369268699783870_);" points="249.428,476.336 
			156.359,200.527 136.777,210.148 212.711,500.535 		"/>
		
			<linearGradient id="SVGID_00000029756453778163757650000004851396059018620299_" gradientUnits="userSpaceOnUse" x1="-5738.9624" y1="-2884.8779" x2="-5569.3086" y2="-2899.396" gradientTransform="matrix(0.4727 -0.8812 -0.8812 -0.4727 406.923 -6018.5518)">
			<stop  offset="0" style="stop-color:#290000"/>
			<stop  offset="0.2463" style="stop-color:#6D1416"/>
			<stop  offset="0.5033" style="stop-color:#B82A2F"/>
			<stop  offset="0.6829" style="stop-color:#80191C"/>
			<stop  offset="0.8978" style="stop-color:#410708"/>
			<stop  offset="1" style="stop-color:#290000"/>
		</linearGradient>
		<polygon style="fill:url(#SVGID_00000029756453778163757650000004851396059018620299_);" points="293.653,438.786 
			344.741,270.389 269.115,227.418 277.799,430.441 		"/>
		
			<linearGradient id="SVGID_00000132810410195742563720000008951225300357181859_" gradientUnits="userSpaceOnUse" x1="-5739.208" y1="-2883.415" x2="-5639.8794" y2="-2891.915" gradientTransform="matrix(0.4727 -0.8812 -0.8812 -0.4727 406.923 -6018.5518)">
			<stop  offset="0" style="stop-color:#B82A2F"/>
			<stop  offset="0.1969" style="stop-color:#A12327"/>
			<stop  offset="0.6071" style="stop-color:#671214"/>
			<stop  offset="1" style="stop-color:#290000"/>
		</linearGradient>
		<polygon style="fill:url(#SVGID_00000132810410195742563720000008951225300357181859_);" points="293.653,438.786 
			260.049,299.611 211.26,310.902 277.799,430.441 		"/>
		
			<linearGradient id="SVGID_00000135682903379187712760000016881330909031180424_" gradientUnits="userSpaceOnUse" x1="-5877.4775" y1="-2855.479" x2="-5438.9541" y2="-2916.8721" gradientTransform="matrix(0.4727 -0.8812 -0.8812 -0.4727 406.923 -6018.5518)">
			<stop  offset="0.6501" style="stop-color:#E11B22"/>
			<stop  offset="0.9083" style="stop-color:#B82A2F"/>
		</linearGradient>
		<polygon style="fill:url(#SVGID_00000135682903379187712760000016881330909031180424_);" points="249.428,476.336 
			260.049,299.611 211.26,310.902 212.711,500.535 		"/>
		
			<linearGradient id="SVGID_00000137121928462051821450000004355571930248131457_" gradientUnits="userSpaceOnUse" x1="-5659.75" y1="-2943.2764" x2="-5379.4766" y2="-2967.2607" gradientTransform="matrix(0.4727 -0.8812 -0.8812 -0.4727 406.923 -6018.5518)">
			<stop  offset="0" style="stop-color:#290000"/>
			<stop  offset="0.04" style="stop-color:#420405"/>
			<stop  offset="0.1259" style="stop-color:#720B0E"/>
			<stop  offset="0.2114" style="stop-color:#9A1015"/>
			<stop  offset="0.295" style="stop-color:#B9151B"/>
			<stop  offset="0.3761" style="stop-color:#CF181F"/>
			<stop  offset="0.4537" style="stop-color:#DC1A21"/>
			<stop  offset="0.5238" style="stop-color:#E11B22"/>
		</linearGradient>
		<polygon style="fill:url(#SVGID_00000137121928462051821450000004355571930248131457_);" points="409.06,103.148 363.233,386.676 
			383.851,398.387 504.097,142 		"/>
		
			<linearGradient id="SVGID_00000018917618359217995510000016490953524630599862_" gradientUnits="userSpaceOnUse" x1="-5675.7842" y1="-2913.9602" x2="-5484.4663" y2="-2940.7446" gradientTransform="matrix(0.4727 -0.8812 -0.8812 -0.4727 406.923 -6018.5518)">
			<stop  offset="0.6501" style="stop-color:#E11B22"/>
			<stop  offset="0.9083" style="stop-color:#B82A2F"/>
		</linearGradient>
		<polygon style="fill:url(#SVGID_00000018917618359217995510000016490953524630599862_);" points="269.115,227.418 
			363.233,386.676 383.851,398.387 344.741,270.389 		"/>
		
			<linearGradient id="SVGID_00000093148349205876331990000016764513544763365261_" gradientUnits="userSpaceOnUse" x1="-5888.2168" y1="-2744.5525" x2="-5367.2427" y2="-2817.4888" gradientTransform="matrix(0.4727 -0.8812 -0.8812 -0.4727 406.923 -6018.5518)">
			<stop  offset="0.6501" style="stop-color:#E11B22"/>
			<stop  offset="0.9083" style="stop-color:#B82A2F"/>
		</linearGradient>
		<polygon style="fill:url(#SVGID_00000093148349205876331990000016764513544763365261_);" points="146.791,452.137 
			156.359,200.527 136.777,210.148 76.697,422.098 		"/>
		
			<linearGradient id="SVGID_00000090257882905246896100000018180393930657845665_" gradientUnits="userSpaceOnUse" x1="-5923.5654" y1="-2700.4727" x2="-5692.4194" y2="-2732.833" gradientTransform="matrix(0.4727 -0.8812 -0.8812 -0.4727 406.923 -6018.5518)">
			<stop  offset="0.6501" style="stop-color:#E11B22"/>
			<stop  offset="0.9083" style="stop-color:#B82A2F"/>
		</linearGradient>
		<polygon style="fill:url(#SVGID_00000090257882905246896100000018180393930657845665_);" points="52.508,494.694 9.576,339.141 
			-19.644,396.721 44.163,483.847 		"/>
	</g>
	<g style="clip-path:url(#SVGID_00000076585307068846075820000008560466797927614382_);">
		
			<linearGradient id="SVGID_00000019649739947364304120000007711019433941123459_" gradientUnits="userSpaceOnUse" x1="2132.4624" y1="-210.1711" x2="2221.1365" y2="-217.7594" gradientTransform="matrix(0.7909 0.612 -0.612 0.7909 -1844.277 -1021.4146)">
			<stop  offset="0" style="stop-color:#290000"/>
			<stop  offset="0.4847" style="stop-color:#B82A2F"/>
			<stop  offset="0.8444" style="stop-color:#550D0F"/>
			<stop  offset="1" style="stop-color:#290000"/>
		</linearGradient>
		<polygon style="fill:url(#SVGID_00000019649739947364304120000007711019433941123459_);" points="-33.273,123.054 54.93,150.871 
			27,157 -38.58,132.09 		"/>
		
			<linearGradient id="SVGID_00000166640713442489549310000001501572559385013145_" gradientUnits="userSpaceOnUse" x1="2128.7202" y1="-263.3758" x2="2216.5869" y2="-270.8949" gradientTransform="matrix(0.7909 0.612 -0.612 0.7909 -1844.277 -1021.4146)">
			<stop  offset="0" style="stop-color:#290000"/>
			<stop  offset="0.3929" style="stop-color:#671214"/>
			<stop  offset="0.8031" style="stop-color:#A12327"/>
			<stop  offset="1" style="stop-color:#B82A2F"/>
		</linearGradient>
		<polygon style="fill:url(#SVGID_00000166640713442489549310000001501572559385013145_);" points="50.521,38.492 54.93,150.871 
			27,157 -6.716,83.407 		"/>
		
			<linearGradient id="SVGID_00000105395818358908484480000007073990394805063855_" gradientUnits="userSpaceOnUse" x1="2102.3752" y1="-323.4299" x2="2254.4941" y2="-336.4474" gradientTransform="matrix(0.7909 0.612 -0.612 0.7909 -1844.277 -1021.4146)">
			<stop  offset="0" style="stop-color:#290000"/>
			<stop  offset="0.3929" style="stop-color:#671214"/>
			<stop  offset="0.8031" style="stop-color:#A12327"/>
			<stop  offset="1" style="stop-color:#B82A2F"/>
		</linearGradient>
		<polygon style="fill:url(#SVGID_00000105395818358908484480000007073990394805063855_);" points="74.881,-37.229 116.53,135.023 
			91.527,142.308 39,-27 		"/>
		
			<linearGradient id="SVGID_00000078744191586379301530000012757664131521236886_" gradientUnits="userSpaceOnUse" x1="2196.8564" y1="-398.3253" x2="2311.9014" y2="-408.1702" gradientTransform="matrix(0.7909 0.612 -0.612 0.7909 -1844.277 -1021.4146)">
			<stop  offset="0" style="stop-color:#290000"/>
			<stop  offset="0.2463" style="stop-color:#6D1416"/>
			<stop  offset="0.5033" style="stop-color:#B82A2F"/>
			<stop  offset="0.6829" style="stop-color:#80191C"/>
			<stop  offset="0.8978" style="stop-color:#410708"/>
			<stop  offset="1" style="stop-color:#290000"/>
		</linearGradient>
		<polygon style="fill:url(#SVGID_00000078744191586379301530000012757664131521236886_);" points="145.06,3.023 248.46,47.597 
			190.629,75.028 132.436,13.969 		"/>
		
			<linearGradient id="SVGID_00000063607011665008444110000012046027418001313948_" gradientUnits="userSpaceOnUse" x1="2199.5129" y1="-363.6339" x2="2255.364" y2="-368.4134" gradientTransform="matrix(0.7909 0.612 -0.612 0.7909 -1844.277 -1021.4146)">
			<stop  offset="0" style="stop-color:#B82A2F"/>
			<stop  offset="0.1969" style="stop-color:#A12327"/>
			<stop  offset="0.6071" style="stop-color:#671214"/>
			<stop  offset="1" style="stop-color:#290000"/>
		</linearGradient>
		<polygon style="fill:url(#SVGID_00000063607011665008444110000012046027418001313948_);" points="145.06,3.023 151.852,87.478 
			102.14,78.563 132.436,13.969 		"/>
		
			<linearGradient id="SVGID_00000170971952025626719630000018348901448818558609_" gradientUnits="userSpaceOnUse" x1="2061.51" y1="-343.9958" x2="2418.5234" y2="-393.9777" gradientTransform="matrix(0.7909 0.612 -0.612 0.7909 -1844.277 -1021.4146)">
			<stop  offset="0.6501" style="stop-color:#E11B22"/>
			<stop  offset="0.9083" style="stop-color:#B82A2F"/>
		</linearGradient>
		<polygon style="fill:url(#SVGID_00000170971952025626719630000018348901448818558609_);" points="74.881,-37.229 151.852,87.478 
			102.14,78.563 39,-27 		"/>
		
			<linearGradient id="SVGID_00000093863426960200516570000009135854442422478254_" gradientUnits="userSpaceOnUse" x1="2189.2922" y1="-528.9571" x2="2475.248" y2="-553.4277" gradientTransform="matrix(0.7909 0.612 -0.612 0.7909 -1844.277 -1021.4146)">
			<stop  offset="0" style="stop-color:#290000"/>
			<stop  offset="0.04" style="stop-color:#420405"/>
			<stop  offset="0.1259" style="stop-color:#720B0E"/>
			<stop  offset="0.2114" style="stop-color:#9A1015"/>
			<stop  offset="0.295" style="stop-color:#B9151B"/>
			<stop  offset="0.3761" style="stop-color:#CF181F"/>
			<stop  offset="0.4537" style="stop-color:#DC1A21"/>
			<stop  offset="0.5238" style="stop-color:#E11B22"/>
		</linearGradient>
		<polygon style="fill:url(#SVGID_00000093863426960200516570000009135854442422478254_);" points="435,55 162.504,-27.627 
			178.742,-42.297 498.539,-17.857 		"/>
		
			<linearGradient id="SVGID_00000062895568808783410630000015929095460475460020_" gradientUnits="userSpaceOnUse" x1="2170.959" y1="-411.2958" x2="2429.1812" y2="-447.4469" gradientTransform="matrix(0.7909 0.612 -0.612 0.7909 -1844.277 -1021.4146)">
			<stop  offset="0.6501" style="stop-color:#E11B22"/>
			<stop  offset="0.9083" style="stop-color:#B82A2F"/>
		</linearGradient>
		<polygon style="fill:url(#SVGID_00000062895568808783410630000015929095460475460020_);" points="190.629,75.028 162.504,-27.627 
			178.742,-42.297 248.46,47.597 		"/>
		
			<linearGradient id="SVGID_00000153670127396787705290000018221672052324107160_" gradientUnits="userSpaceOnUse" x1="2091.6345" y1="-278.3263" x2="2397.4875" y2="-321.1456" gradientTransform="matrix(0.7909 0.612 -0.612 0.7909 -1844.277 -1021.4146)">
			<stop  offset="0.6501" style="stop-color:#E11B22"/>
			<stop  offset="0.9083" style="stop-color:#B82A2F"/>
		</linearGradient>
		<polygon style="fill:url(#SVGID_00000153670127396787705290000018221672052324107160_);" points="50.521,38.492 116.53,135.023 
			91.527,142.308 -6.716,83.407 		"/>
		
			<linearGradient id="SVGID_00000115514561901666625390000012891565460755963270_" gradientUnits="userSpaceOnUse" x1="2114.3569" y1="-149.3289" x2="2346.186" y2="-181.785" gradientTransform="matrix(0.7909 0.612 -0.612 0.7909 -1844.277 -1021.4146)">
			<stop  offset="0.6501" style="stop-color:#E11B22"/>
			<stop  offset="0.9083" style="stop-color:#B82A2F"/>
		</linearGradient>
		<polygon style="fill:url(#SVGID_00000115514561901666625390000012891565460755963270_);" points="-33.273,123.054 17.201,237.028 
			-45.981,232.791 -38.58,132.09 		"/>
	</g>
	<g style="clip-path:url(#SVGID_00000076585307068846075820000008560466797927614382_);">
		<g>
			<path style="fill:#FFFFFF;" d="M-110.999,217.5c-0.025,0-0.051-0.002-0.077-0.006c-0.272-0.042-0.46-0.297-0.418-0.57
				c7.021-45.633,24.528-71.962,55.098-82.858c28.048-9.998,64.701-6.681,107.144-2.84c4.696,0.425,9.463,0.856,14.296,1.276
				c66.184,5.752,78.24-23.858,94.932-64.845c6.333-15.552,13.512-33.179,24.602-50.922c12.73-23.646,34.025-40.213,63.276-49.213
				c22.887-7.043,50.204-9.405,81.186-7.021c13.39,1.029,31.202,4.377,51.826,8.254c57.094,10.729,135.289,25.429,167.8-4.126
				c0.204-0.185,0.521-0.172,0.706,0.034c0.186,0.204,0.171,0.521-0.034,0.706c-14.611,13.282-39.053,19.022-74.727,17.534
				c-30.673-1.276-64.278-7.593-93.929-13.166c-20.596-3.871-38.383-7.214-51.718-8.24c-90.09-6.929-127.771,26.487-143.522,55.739
				C174.38,34.936,167.219,52.52,160.9,68.034c-15.439,37.912-26.959,66.187-80.233,66.188c-4.877,0-10.099-0.236-15.71-0.725
				c-4.835-0.42-9.603-0.852-14.3-1.276c-84.801-7.673-146.075-13.219-161.163,84.855C-110.544,217.323-110.757,217.5-110.999,217.5
				z"/>
		</g>
		<g>
			<path style="fill:#FCECED;" d="M-116.431,213.243c-0.021,0-0.043-0.001-0.064-0.004c-0.274-0.035-0.468-0.286-0.433-0.56
				c3.407-26.563,13.159-48.868,27.461-62.81c27.138-26.651,68.139-24.212,115.004-18.641c1.989,0.236,3.983,0.477,5.984,0.719
				c12.824,1.549,26.085,3.15,39.677,3.773c10.953,0.501,20.632-0.204,29.612-2.159c21.812-4.748,34.686-14.233,44.436-32.742
				c4.811-9.131,8.807-19.718,13.038-30.926c7.205-19.084,15.371-40.714,29.968-61.547c13.875-19.802,33.792-33.922,59.198-41.967
				c20.907-6.62,45.588-9.175,73.362-7.584c3.698,0.211,7.407,0.495,11.026,0.846c13.19,1.276,30.161,4.532,49.813,8.303
				c56.216,10.783,133.21,25.556,167.2-1.597c0.218-0.171,0.531-0.137,0.703,0.078c0.172,0.216,0.137,0.531-0.078,0.703
				c-34.351,27.441-108.463,13.222-168.014,1.797c-19.627-3.765-36.576-7.017-49.72-8.288c-3.607-0.35-7.303-0.633-10.987-0.844
				c-27.653-1.58-52.212,0.955-73.004,7.539c-25.191,7.978-44.935,21.97-58.682,41.588c-14.524,20.729-22.667,42.297-29.851,61.325
				c-4.242,11.238-8.25,21.854-13.089,31.04c-9.904,18.801-22.973,28.435-45.108,33.252c-9.067,1.974-18.846,2.688-29.87,2.181
				c-13.63-0.624-26.909-2.229-39.751-3.779c-2.001-0.241-3.995-0.482-5.982-0.719c-46.604-5.536-87.364-7.978-114.188,18.363
				c-14.142,13.785-23.79,35.883-27.168,62.222C-115.968,213.059-116.184,213.243-116.431,213.243z"/>
		</g>
		<g>
			<path style="fill:#FAD9DA;" d="M-121.862,208.988c-0.018,0-0.035-0.001-0.053-0.003c-0.274-0.028-0.474-0.274-0.445-0.549
				c2.76-26.622,14.346-50.583,30.992-64.095c13.712-11.128,30.816-16.615,53.829-17.269c20.302-0.574,42.404,2.665,67.114,6.638
				c16.006,2.574,31.704,4.91,47.787,5.23c10.664,0.214,20.569-1.213,30.318-4.356c24.51-7.904,33.867-20.48,41.021-38.209
				c3.009-7.455,5.611-15.653,8.367-24.332c7.297-22.98,15.566-49.026,34.872-72.096c27.217-32.523,71.581-46.721,131.863-42.198
				c3.658,0.274,7.305,0.623,10.838,1.034c12.89,1.503,29.691,4.797,47.479,8.285c55.433,10.869,131.347,25.755,166.922,0.999
				c0.226-0.158,0.539-0.102,0.695,0.125c0.158,0.227,0.103,0.538-0.125,0.695c-35.922,24.997-108.98,10.672-167.685-0.838
				c-17.769-3.484-34.552-6.775-47.402-8.272c-3.521-0.411-7.153-0.757-10.797-1.03c-59.951-4.497-104.023,9.581-131.021,41.843
				c-19.18,22.917-27.418,48.863-34.686,71.755c-2.762,8.698-5.37,16.914-8.393,24.405c-7.262,17.996-16.761,30.763-41.642,38.785
				c-9.855,3.178-19.878,4.616-30.645,4.405c-16.148-0.321-31.885-2.663-47.926-5.243c-52.449-8.431-91.768-12.621-120.154,10.421
				c-16.446,13.348-27.896,37.057-30.629,63.421C-121.393,208.797-121.609,208.988-121.862,208.988z"/>
		</g>
		<g>
			<path style="fill:#F7C6C8;" d="M-127.294,204.731c-0.014,0-0.027-0.001-0.041-0.002c-0.275-0.022-0.48-0.263-0.458-0.538
				c2.623-32.822,20.239-55.73,34.527-65.373c31.826-21.589,76.136-12.747,123.052-3.387l3.824,0.763
				c15.313,3.049,32.672,6.503,49.902,5.968c11.289-0.351,21.443-2.494,31.045-6.555c23.649-10,31.219-22.556,37.605-43.68
				c1.854-6.135,3.491-12.654,5.225-19.557c6.666-26.551,14.222-56.645,38.244-80.819c28.814-28.996,71.714-40.396,131.165-34.848
				c3.548,0.331,7.13,0.743,10.646,1.223c12.455,1.698,28.131,4.845,44.728,8.176c57.814,11.605,129.763,26.049,167.065,3.687
				c0.233-0.144,0.543-0.066,0.685,0.172c0.143,0.236,0.065,0.544-0.172,0.686c-37.633,22.561-109.793,8.075-167.774-3.563
				c-16.581-3.328-32.242-6.472-44.666-8.166c-3.503-0.478-7.07-0.887-10.605-1.217c-59.125-5.521-101.771,5.786-130.362,34.557
				c-23.828,23.979-31.349,53.932-37.983,80.358c-1.736,6.914-3.376,13.445-5.237,19.602c-6.333,20.947-14.292,34.214-38.174,44.313
				c-9.716,4.108-19.988,6.277-31.402,6.633c-17.366,0.532-34.766-2.929-50.129-5.987l-3.825-0.763
				c-46.701-9.318-90.813-18.118-122.296,3.234c-14.104,9.52-31.495,32.156-34.091,64.625
				C-126.817,204.533-127.036,204.731-127.294,204.731z"/>
		</g>
		<g>
			<path style="fill:#F5B3B5;" d="M-132.726,200.476c-0.01,0-0.02,0-0.029-0.001c-0.276-0.016-0.486-0.252-0.471-0.527
				c1.827-32.02,21.01-56.994,38.06-66.648c32.784-18.486,77.753-7.75,121.237,2.634c3.856,0.921,7.716,1.842,11.572,2.745
				c19.165,4.491,35.16,7.839,52.028,6.706c11.528-0.773,21.919-3.635,31.766-8.749c24.64-12.798,29.535-27.773,34.192-49.158
				c1.125-5.167,2.12-10.541,3.174-16.23c5.529-29.857,11.797-63.698,40.521-88.087c29.494-25.042,72.172-34.036,130.464-27.5
				c3.371,0.378,6.889,0.853,10.456,1.41c11.821,1.848,26.17,4.803,41.359,7.931c57.291,11.801,128.592,26.483,167.824,6.512
				c0.246-0.125,0.547-0.027,0.672,0.219c0.126,0.246,0.027,0.547-0.219,0.672c-39.542,20.132-111.035,5.406-168.478-6.423
				c-15.179-3.126-29.515-6.078-41.313-7.922c-3.553-0.556-7.057-1.028-10.413-1.404c-58.013-6.509-100.434,2.414-129.706,27.268
				c-28.453,24.158-34.686,57.813-40.185,87.507c-1.056,5.697-2.052,11.079-3.181,16.262c-4.717,21.662-9.682,36.833-34.708,49.832
				c-9.972,5.18-20.491,8.078-32.16,8.86c-16.994,1.137-33.075-2.221-52.323-6.73c-3.857-0.903-7.718-1.825-11.575-2.746
				c-43.3-10.339-88.071-21.03-120.515-2.735c-16.819,9.524-35.746,34.189-37.553,65.834
				C-132.242,200.27-132.463,200.476-132.726,200.476z"/>
		</g>
		<g>
			<path style="fill:#F2A0A3;" d="M-138.158,196.22c-0.006,0-0.012,0-0.018,0c-0.276-0.01-0.492-0.241-0.482-0.518
				c1.118-31.904,22.264-58.805,41.592-67.918c33.68-15.881,77.776-3.57,120.42,8.336c6.024,1.682,12.253,3.421,18.322,5.041
				c19.216,5.131,36.554,9.234,54.154,7.445c11.8-1.199,22.429-4.779,32.495-10.945c23.825-14.593,27.216-30.27,30.774-54.64
				c0.659-4.515,1.232-9.148,1.838-14.055c4.071-32.965,8.685-70.328,42.082-94.199c39.458-28.201,92.956-25.009,129.763-20.154
				c3.19,0.421,6.548,0.943,10.266,1.599c10.932,1.925,23.708,4.631,37.235,7.497c56.988,12.073,127.912,27.095,169.342,9.528
				c0.251-0.109,0.548,0.01,0.655,0.265c0.108,0.254-0.011,0.548-0.265,0.655c-13.73,5.823-30.649,8.099-49.198,8.099
				c-37.812,0.002-82.416-9.449-120.741-17.569c-13.519-2.863-26.287-5.568-37.202-7.49c-3.703-0.651-7.048-1.173-10.223-1.591
				c-76.502-10.091-110.291,6.567-129.05,19.977c-33.04,23.614-37.626,60.747-41.672,93.508c-0.607,4.911-1.18,9.551-1.84,14.076
				c-3.6,24.657-7.036,40.522-31.243,55.349c-10.196,6.245-20.963,9.872-32.915,11.086c-17.773,1.805-35.202-2.316-54.514-7.473
				c-6.074-1.623-12.307-3.362-18.333-5.045c-42.468-11.857-86.38-24.115-119.726-8.394c-19.061,8.987-39.914,35.54-41.018,67.049
				C-137.668,196.007-137.89,196.22-138.158,196.22z"/>
		</g>
		<g>
			<path style="fill:#F08D91;" d="M-143.59,191.963c-0.002,0-0.005,0-0.007,0c-0.276-0.004-0.497-0.23-0.493-0.507
				c0.439-31.987,23.763-60.817,45.12-69.184c34.732-13.604,78.465,0.379,120.758,13.899c7.897,2.524,16.064,5.136,23.918,7.473
				c19.958,5.939,37.968,10.655,56.284,8.185c12.091-1.631,22.959-5.93,33.226-13.142c23.695-16.647,25.116-33.518,27.267-59.053
				l0.091-1.074c0.347-4.106,0.628-8.29,0.926-12.719c2.303-34.186,5.167-76.731,43.217-99.462
				c38.157-22.792,86.651-19.266,129.059-12.812c2.956,0.449,6.156,1.017,10.074,1.786c9.59,1.881,20.357,4.237,31.754,6.732
				C431.675-26.076,505.731-9.867,549.82-25.037c0.266-0.091,0.546,0.049,0.636,0.31c0.09,0.262-0.049,0.546-0.31,0.636
				c-12.868,4.428-28.257,6.203-44.933,6.204c-40.806,0.002-89.357-10.628-127.824-19.049c-11.393-2.493-22.154-4.849-31.734-6.729
				c-3.902-0.766-7.09-1.331-10.031-1.778c-42.231-6.428-90.511-9.949-128.394,12.683c-37.601,22.461-40.327,62.948-42.732,98.669
				c-0.299,4.435-0.58,8.622-0.928,12.736l-0.091,1.074c-2.174,25.815-3.61,42.871-27.689,59.787
				c-10.4,7.307-21.413,11.661-33.667,13.313c-18.512,2.496-36.632-2.244-56.702-8.216c-7.863-2.341-16.035-4.953-23.937-7.48
				c-42.128-13.468-85.691-27.393-120.088-13.92c-21.057,8.248-44.052,36.693-44.485,68.266
				C-143.094,191.743-143.316,191.963-143.59,191.963z"/>
		</g>
		<g>
			<path style="fill:#ED7A7E;" d="M-149.021,187.707c-0.274,0-0.498-0.222-0.5-0.496c-0.221-32.185,25.46-62.958,48.646-70.446
				c35.896-11.594,79.658,4.149,121.979,19.375c9.939,3.575,19.327,6.953,28.631,9.988c20.713,6.758,39.403,12.093,58.415,8.924
				c12.402-2.068,23.511-7.086,33.96-15.339c22.635-17.877,23.095-34.807,23.79-60.433c0.046-1.69,0.093-3.418,0.147-5.184
				c0.119-3.863,0.187-7.784,0.257-11.937c0.631-37.032,1.415-83.119,44.108-104.164c38.382-18.922,86.379-12.747,128.355-5.473
				c3.139,0.543,6.22,1.182,9.881,1.974c7.563,1.635,15.686,3.484,24.287,5.441c54.701,12.45,129.617,29.5,177.081,16.754
				c0.271-0.07,0.541,0.087,0.612,0.353c0.072,0.267-0.086,0.541-0.353,0.612c-47.703,12.814-122.76-4.271-177.563-16.743
				c-8.598-1.957-16.719-3.806-24.275-5.441c-3.649-0.788-6.719-1.425-9.84-1.965c-41.822-7.248-89.63-13.402-127.744,5.384
				c-42.145,20.775-42.924,66.524-43.55,103.285c-0.071,4.155-0.138,8.08-0.257,11.95c-0.055,1.764-0.102,3.49-0.147,5.18
				c-0.703,25.908-1.168,43.023-24.171,61.19c-10.585,8.359-21.842,13.443-34.415,15.54c-19.235,3.207-38.049-2.16-58.89-8.959
				c-9.317-3.041-18.713-6.42-28.658-9.998c-42.163-15.169-85.761-30.851-121.335-19.365c-22.855,7.382-48.171,37.735-47.953,69.487
				c0.002,0.276-0.221,0.502-0.496,0.504C-149.02,187.707-149.02,187.707-149.021,187.707z"/>
		</g>
		<g>
			<path style="fill:#EB676C;" d="M-154.453,183.451c-0.271,0-0.492-0.215-0.5-0.486c-0.866-32.427,27.333-65.173,52.171-71.706
				c37.184-9.783,81.273,7.804,123.91,24.813c11.391,4.544,22.15,8.836,32.637,12.541c21.476,7.589,40.857,13.554,60.548,9.663
				c12.727-2.515,24.076-8.251,34.696-17.536c21.855-19.11,21.378-37.217,20.718-62.277c-0.075-2.846-0.153-5.785-0.202-8.832
				c-0.06-3.704-0.165-7.524-0.273-11.426c-1.107-39.972-2.486-89.718,44.859-108.59c38.809-15.469,86.008-6.26,127.651,1.864
				c3.148,0.614,6.312,1.363,9.372,2.087l0.317,0.075c4.243,1.004,8.637,2.056,13.158,3.138
				c56.311,13.478,133.434,31.938,185.605,21.645c0.268-0.056,0.533,0.122,0.587,0.394c0.054,0.271-0.123,0.534-0.394,0.587
				c-52.386,10.334-129.63-8.154-186.031-21.653c-4.521-1.082-8.914-2.134-13.156-3.138l-0.317-0.075
				c-3.051-0.722-6.205-1.468-9.333-2.077c-41.51-8.099-88.556-17.277-127.089-1.917c-46.698,18.612-45.33,67.972-44.231,107.632
				c0.108,3.906,0.215,7.731,0.274,11.439c0.049,3.043,0.126,5.979,0.201,8.821c0.668,25.333,1.15,43.638-21.059,63.056
				c-10.756,9.404-22.258,15.216-35.161,17.765c-19.938,3.944-39.457-2.062-61.075-9.7c-10.505-3.712-21.272-8.008-32.674-12.556
				c-42.485-16.947-86.417-34.473-123.285-24.774c-24.482,6.44-52.279,38.732-51.425,70.712c0.007,0.276-0.211,0.506-0.486,0.514
				C-154.444,183.451-154.449,183.451-154.453,183.451z"/>
		</g>
		<g>
			<path style="fill:#E85459;" d="M-159.885,179.195c-0.266,0-0.487-0.209-0.499-0.477c-1.544-33.6,29.205-67.389,55.692-72.963
				c38.585-8.12,85.253,12.264,126.423,30.249c12.655,5.528,24.608,10.751,36.06,15.091c22.243,8.432,42.314,15.034,62.683,10.404
				c13.063-2.97,24.654-9.425,35.435-19.736c21.291-20.363,19.884-38.873,17.936-64.492c-0.295-3.879-0.6-7.891-0.843-12.11
				c-0.205-3.554-0.451-7.217-0.703-10.957c-2.902-43.09-6.515-96.717,45.511-112.966c35.471-11.078,76.398-1.999,115.981,6.779
				c3.662,0.813,7.318,1.624,10.965,2.418c2.625,0.571,5.267,1.255,7.821,1.916l1.675,0.433
				C405.338-34.088,490.84-12.111,550.41-19.843c0.265-0.039,0.524,0.157,0.56,0.432c0.035,0.274-0.158,0.524-0.432,0.561
				c-59.763,7.755-145.38-14.251-196.535-27.397l-1.678-0.433c-2.545-0.659-5.177-1.341-7.783-1.908
				c-3.647-0.794-7.306-1.605-10.969-2.418c-39.455-8.75-80.254-17.8-115.466-6.801c-51.273,16.014-47.691,69.204-44.813,111.943
				c0.252,3.744,0.499,7.41,0.704,10.968c0.242,4.21,0.547,8.217,0.842,12.092c1.969,25.893,3.391,44.6-18.242,65.29
				c-10.915,10.44-22.659,16.979-35.904,19.988c-20.636,4.693-40.859-1.954-63.258-10.443c-11.476-4.35-23.439-9.576-36.106-15.11
				c-41.032-17.925-87.535-38.243-125.817-30.187c-12.839,2.702-26.969,12.329-37.796,25.753
				c-11.56,14.33-17.793,31.165-17.104,46.187c0.013,0.275-0.2,0.51-0.476,0.521C-159.869,179.195-159.877,179.195-159.885,179.195z
				"/>
		</g>
		<g>
			<path style="fill:#E64147;" d="M-165.316,174.939c-0.262,0-0.481-0.203-0.499-0.468c-2.181-33.785,31.295-69.646,59.212-74.219
				c40.093-6.569,87.541,15.893,129.399,35.709c13.769,6.519,26.774,12.676,39.022,17.617
				c38.842,15.671,52.825,14.213,64.819,11.144c13.405-3.431,25.238-10.607,36.175-21.938c20.889-21.642,18.571-40.66,15.364-66.983
				c-0.588-4.821-1.195-9.808-1.697-15.113c-0.317-3.355-0.671-6.812-1.032-10.341c-4.758-46.454-10.68-104.268,46.06-117.485
				c32.85-7.653,69.263,1.829,104.479,10.998c7.148,1.861,14.541,3.786,21.765,5.529c2.288,0.553,4.589,1.205,6.815,1.836
				c0.829,0.235,1.659,0.47,2.489,0.701c53.38,14.818,131.535,34.045,193.553,29.967c0.281-0.034,0.514,0.191,0.532,0.466
				c0.018,0.276-0.19,0.514-0.466,0.532c-62.197,4.084-140.437-15.164-193.887-30.002c-0.832-0.23-1.663-0.467-2.494-0.702
				c-2.217-0.628-4.508-1.278-6.776-1.825c-7.232-1.746-14.629-3.672-21.782-5.534c-35.098-9.138-71.39-18.59-104-10.991
				c-55.881,13.018-50.01,70.346-45.291,116.409c0.361,3.531,0.716,6.99,1.033,10.349c0.5,5.292,1.106,10.27,1.693,15.086
				c3.241,26.598,5.582,45.814-15.638,67.8c-11.068,11.467-23.056,18.732-36.646,22.211c-9.643,2.469-19.561,2.496-31.216,0.089
				c-11.314-2.337-23.137-6.799-34.226-11.273c-12.275-4.953-25.293-11.116-39.075-17.641
				c-41.726-19.755-89.011-42.146-128.81-35.627c-27.522,4.509-60.526,39.861-58.376,73.168c0.018,0.275-0.191,0.514-0.467,0.531
				C-165.295,174.939-165.306,174.939-165.316,174.939z"/>
		</g>
		<g>
			<path style="fill:#E32E35;" d="M117.126,171.067c-16.919,0-34.141-6.602-51.675-14.085c-12.941-5.523-26.895-12.618-41.667-20.13
				c-42.555-21.641-90.78-46.164-132.181-41.108c-14.316,1.75-30.387,11.423-42.986,25.875
				c-13.278,15.231-20.155,32.917-18.867,48.522c0.023,0.275-0.182,0.517-0.457,0.539c-0.256,0.007-0.517-0.181-0.539-0.457
				c-1.311-15.873,5.654-33.828,19.109-49.261c12.758-14.634,29.064-24.433,43.619-26.211
				c41.699-5.098,90.073,19.504,132.755,41.209c14.757,7.504,28.695,14.592,41.607,20.102
				c40.137,17.129,54.574,15.396,66.957,11.884c13.759-3.902,25.834-11.798,36.916-24.138
				c20.613-22.953,17.398-42.561,12.946-69.699c-0.934-5.691-1.898-11.577-2.705-17.895c-0.39-3.055-0.81-6.195-1.237-9.4
				c-3.277-24.541-6.992-52.357-2.276-75.597c5.495-27.084,21.444-42.368,48.759-46.728c30.962-4.938,63.897,5.236,95.747,15.077
				c9.791,3.025,19.915,6.153,29.793,8.779c2.026,0.538,4.063,1.17,6.033,1.78c1.024,0.318,2.05,0.636,3.078,0.942
				c49.936,14.901,123.07,32.567,189.081,32.567c0.623,0,1.244-0.002,1.864-0.005h0.003c0.275,0,0.499,0.223,0.5,0.497
				c0.001,0.276-0.222,0.502-0.497,0.503c-66.631,0.383-140.765-17.543-191.236-32.604c-1.032-0.309-2.061-0.627-3.09-0.946
				c-1.96-0.607-3.986-1.235-5.992-1.769c-9.897-2.631-20.032-5.763-29.833-8.791c-31.738-9.807-64.559-19.952-95.293-15.044
				c-26.854,4.285-42.535,19.312-47.938,45.938c-4.682,23.074-0.979,50.802,2.288,75.266c0.429,3.207,0.848,6.349,1.238,9.405
				c0.804,6.301,1.768,12.177,2.7,17.859c4.327,26.382,7.744,47.22-13.189,70.529c-11.212,12.484-23.441,20.476-37.387,24.433
				C127.788,170.408,122.472,171.067,117.126,171.067z"/>
		</g>
		<g>
			<path style="fill:#E11B22;" d="M121.1,174.766c-16.216,0-33.062-6.018-51.658-15.316c-15.877-6.349-33.302-15.576-51.749-25.345
				c-40.938-21.679-87.335-46.259-128.054-43.856c-30.793,3.422-68.74,41.44-65.321,75.628c0.028,0.274-0.173,0.52-0.447,0.547
				c-0.271,0.027-0.521-0.173-0.547-0.447c-1.61-16.1,5.692-34.383,20.037-50.161c13.569-14.927,30.838-24.856,46.194-26.563
				c41.015-2.415,87.552,22.227,128.605,43.968c18.424,9.756,35.825,18.971,51.69,25.317c23.248,11.622,40.528,16.276,56.044,15.114
				c17.957-1.347,34.08-10.51,50.741-28.837c20.455-26.302,16.074-47.509,10.01-76.859c-1.067-5.17-2.172-10.517-3.207-16.205
				c-0.575-4.31-1.207-8.689-1.876-13.327c-5.052-35.013-11.339-78.587,7.81-103.061c8.611-11.007,21.908-17.48,39.522-19.241
				c27.818-2.321,56.036,7.871,83.324,17.726c13.606,4.913,27.676,9.994,41.501,13.45c63.635,21.21,133.682,34.728,197.274,38.074
				c0.275,0.015,0.487,0.25,0.473,0.525c-0.014,0.276-0.285,0.51-0.525,0.473c-63.679-3.351-133.819-16.886-197.5-38.112
				c-13.838-3.459-27.932-8.548-41.561-13.47c-27.189-9.817-55.304-19.972-82.894-17.671c-17.567,1.757-30.271,7.927-38.825,18.862
				c-18.886,24.138-12.632,67.478-7.607,102.302c0.669,4.64,1.302,9.022,1.874,13.313c1.028,5.654,2.132,10.994,3.198,16.159
				c6.118,29.613,10.539,51.009-10.225,77.704C158.297,166.474,140.133,174.766,121.1,174.766z"/>
		</g>
	</g>
	<g style="clip-path:url(#SVGID_00000076585307068846075820000008560466797927614382_);">
		<g>
			<path style="fill:#FFFFFF;" d="M-73.863,431.341c-14.792,0-32.358-9.861-53.481-29.978c-0.2-0.19-0.208-0.507-0.018-0.707
				c0.192-0.201,0.508-0.206,0.707-0.018c23.436,22.319,42.367,31.895,57.876,29.284c21.064-3.55,34.413-29.45,48.546-56.871
				c8.584-16.654,17.46-33.875,28.84-48.359c15.745-18.895,35.478-27.046,60.333-24.929c22.156,1.885,45.4,11.189,70.009,21.038
				c34.488,13.804,70.152,28.077,101.925,19.716c31.279-9.775,38.437-35.868,45.357-61.102
				c7.168-26.132,13.938-50.815,46.708-54.911c16.995-3.781,34.272-0.392,50.981,2.885c18.676,3.662,37.988,7.448,56.922,1.137
				c25.032-7.152,39.964-23.385,45.67-49.632c5.166-23.765,1.643-51.929-2.005-73.812c-0.046-0.272,0.139-0.53,0.411-0.575
				c0.268-0.05,0.529,0.138,0.575,0.411c3.662,21.97,7.198,50.258,1.995,74.188c-5.791,26.64-20.953,43.118-46.351,50.374
				c-19.164,6.389-38.608,2.577-57.41-1.111c-16.606-3.256-33.777-6.623-50.619-2.881c-32.152,4.021-38.837,28.391-45.913,54.191
				c-6.993,25.492-14.224,51.853-46.046,61.798c-6.659,1.752-13.482,2.525-20.416,2.525c-26.507,0.002-54.699-11.284-82.157-22.274
				C89.909,302.249,43.94,283.851,9.384,325.32c-11.313,14.398-20.166,31.576-28.728,48.188
				c-14.251,27.65-27.712,53.767-49.27,57.399C-70.322,431.196-72.073,431.341-73.863,431.341z"/>
		</g>
		<g>
			<path style="fill:#FCECED;" d="M-73.085,434.462c-14.699,0-32.456-9.46-54.019-28.729c-0.206-0.185-0.224-0.5-0.04-0.706
				c0.186-0.206,0.503-0.222,0.706-0.04c24.544,21.932,44.023,31.037,59.562,27.857c20.972-4.302,33.349-30.807,46.452-58.867
				c9.323-19.966,18.965-40.611,32.654-56.786c16.006-18.911,35.705-26.325,60.218-22.675c21.836,3.254,45.599,14.857,68.578,26.08
				c34.448,16.823,70.068,34.216,102.017,25.817c33.306-8.76,38.944-36.713,44.397-63.747c5.532-27.425,10.758-53.329,42.852-59.617
				c17.281-3.388,35.059,0.126,52.251,3.522c18.643,3.683,37.924,7.491,56.525,2.46c25.701-6.951,41.57-22.723,48.514-48.214
				c5.133-18.845,5.26-42.4,0.4-74.128c-0.042-0.273,0.146-0.528,0.418-0.57c0.277-0.039,0.529,0.146,0.57,0.419
				c4.882,31.872,4.747,55.559-0.424,74.542c-6.947,25.505-23.506,41.962-49.217,48.916c-18.831,5.094-38.226,1.261-56.982-2.444
				c-17.1-3.378-34.779-6.871-51.865-3.522c-31.438,6.16-36.599,31.746-42.063,58.835c-5.514,27.334-11.215,55.598-45.124,64.516
				c-32.306,8.494-68.096-8.983-102.709-25.886c-47.554-23.222-92.469-45.157-127.594-3.657
				c-13.603,16.072-23.216,36.656-32.512,56.564c-13.213,28.294-25.693,55.02-47.158,59.423
				C-68.744,434.248-70.882,434.462-73.085,434.462z"/>
		</g>
		<g>
			<path style="fill:#FAD9DA;" d="M-71.943,437.857c-14.798,0-32.866-9.149-54.919-27.755c-0.211-0.178-0.238-0.493-0.06-0.704
				c0.179-0.211,0.495-0.236,0.704-0.06c25.76,21.732,45.946,30.453,61.714,26.66c21.391-5.146,33.093-32.995,45.482-62.479
				c9.59-22.822,19.506-46.421,34.871-63.82c16.642-18.844,36.572-25.493,60.934-20.335c21.682,4.594,44.956,17.982,67.464,30.93
				c33.908,19.505,68.973,39.672,100.977,32.015c34.788-8.326,38.853-38.309,42.782-67.305c3.933-29.011,7.647-56.412,39.664-63.412
				c17.706-3.872,36.458,0.163,54.588,4.064c18.314,3.94,37.25,8.015,55.026,3.888c26.176-6.08,43.51-21.665,51.52-46.323
				c6.193-19.063,7.062-43.569,2.655-74.921c-0.038-0.273,0.152-0.526,0.426-0.564c0.269-0.035,0.526,0.152,0.564,0.426
				c4.428,31.505,3.547,56.158-2.694,75.368c-8.127,25.015-25.705,40.824-52.245,46.989c-17.99,4.179-37.041,0.078-55.463-3.885
				c-18.027-3.88-36.667-7.89-54.165-4.064c-31.333,6.852-35.002,33.916-38.886,62.57c-3.976,29.329-8.086,59.656-43.541,68.143
				c-32.395,7.751-67.629-12.518-101.708-32.121c-22.44-12.908-45.646-26.256-67.173-30.817
				c-24.307-5.148-43.367,1.211-59.976,20.018C1.343,327.638-8.541,351.159-18.1,373.907c-12.49,29.724-24.288,57.8-46.171,63.065
				C-66.725,437.561-69.281,437.857-71.943,437.857z"/>
		</g>
		<g>
			<path style="fill:#F7C6C8;" d="M-70.721,441.397c-14.965,0-33.369-8.884-55.902-26.927c-0.216-0.173-0.25-0.487-0.078-0.703
				c0.174-0.216,0.49-0.248,0.703-0.078c26.979,21.604,47.9,29.97,63.964,25.578c21.973-6.01,33.104-35.438,44.889-66.593
				c9.681-25.596,19.692-52.063,36.615-70.469c17.28-18.793,37.461-24.679,61.694-17.998c21.551,5.944,44.364,21.127,66.426,35.811
				c33.331,22.183,67.8,45.122,99.813,38.186c36.242-7.853,38.697-39.842,41.071-70.776c2.248-29.287,4.573-59.57,36.574-67.295
				c18.092-4.365,37.815,0.237,56.891,4.689c17.984,4.197,36.583,8.541,53.563,5.231c27.034-5.264,45.384-20.206,54.54-44.41
				c7.252-19.169,8.899-44.65,4.895-75.736c-0.035-0.273,0.158-0.524,0.433-0.56c0.266-0.036,0.524,0.157,0.56,0.433
				c9.131,70.897-11.135,111.693-60.235,121.256c-17.193,3.345-35.894-1.02-53.982-5.239c-18.962-4.427-38.572-9.003-56.429-4.691
				c-31.294,7.553-33.488,36.137-35.811,66.398c-2.402,31.301-4.887,63.667-41.857,71.677c-4.043,0.876-8.127,1.285-12.233,1.285
				c-28.822,0.003-59.018-20.097-88.344-39.615c-21.996-14.64-44.741-29.777-66.138-35.679c-24.17-6.667-43.455-1.038-60.692,17.712
				c-16.792,18.264-26.769,44.639-36.417,70.145c-11.877,31.4-23.096,61.06-45.56,67.204
				C-64.607,441.008-67.59,441.397-70.721,441.397z"/>
		</g>
		<g>
			<path style="fill:#F5B3B5;" d="M-69.439,445.057c-15.181,0-33.94-8.657-56.944-26.218c-0.219-0.168-0.262-0.482-0.094-0.701
				c0.169-0.22,0.482-0.262,0.701-0.094c28.204,21.53,49.889,29.568,66.287,24.588c22.678-6.895,33.305-38.074,44.557-71.084
				c9.649-28.309,19.627-57.58,38.021-76.834c17.929-18.766,38.377-23.89,62.511-15.669c21.444,7.306,43.824,24.297,65.468,40.729
				c32.711,24.833,66.541,50.506,98.516,44.326c37.659-7.39,38.483-41.352,39.281-74.195c0.75-30.858,1.525-62.768,33.561-71.227
				c18.422-4.867,39.134,0.352,59.164,5.4c17.652,4.448,35.904,9.05,52.129,6.488c27.914-4.403,47.283-18.693,57.571-42.471
				c8.419-19.46,10.816-45.224,7.125-76.577c-0.033-0.274,0.163-0.522,0.438-0.555c0.267-0.045,0.523,0.163,0.555,0.438
				c3.713,31.53,1.291,57.468-7.199,77.091c-10.433,24.113-30.06,38.602-58.333,43.063c-16.424,2.589-34.779-2.035-52.529-6.507
				c-19.907-5.017-40.493-10.203-58.664-5.403c-31.31,8.268-32.042,38.393-32.816,70.285c-0.808,33.238-1.643,67.608-40.09,75.152
				c-32.43,6.276-66.427-19.545-99.311-44.512c-21.58-16.383-43.895-33.324-65.186-40.577c-24.058-8.198-43.59-3.299-61.466,15.413
				C5.569,314.5-4.372,343.665-13.985,371.87c-11.337,33.26-22.046,64.675-45.213,71.718
				C-62.415,444.566-65.826,445.057-69.439,445.057z"/>
		</g>
		<g>
			<path style="fill:#F2A0A3;" d="M-68.113,448.815c-15.434,0-34.564-8.463-58.031-25.609c-0.223-0.162-0.271-0.476-0.108-0.698
				c0.163-0.223,0.477-0.271,0.698-0.108c29.434,21.504,51.897,29.248,68.673,23.674c23.475-7.797,33.646-40.864,44.414-75.872
				c9.525-30.971,19.376-62.996,39.176-82.977c18.563-18.733,39.274-23.084,63.316-13.293c21.341,8.689,43.292,27.506,64.521,45.702
				c32.101,27.518,65.291,55.971,97.216,50.363c39.099-6.719,38.269-42.667,37.465-77.432c-0.751-32.516-1.527-66.138,30.578-75.346
				c18.719-5.369,40.421,0.51,61.411,6.197c17.315,4.692,35.223,9.543,50.72,7.663c28.81-3.495,49.203-17.123,60.612-40.506
				c9.605-19.688,12.749-45.744,9.343-77.445c-0.029-0.274,0.169-0.521,0.443-0.551c0.268-0.023,0.521,0.169,0.551,0.443
				c3.427,31.893,0.251,58.132-9.438,77.991c-11.567,23.707-32.222,37.521-61.39,41.06c-15.694,1.906-33.694-2.974-51.103-7.69
				c-20.856-5.65-42.422-11.491-60.874-6.201c-31.363,8.995-30.63,40.746-29.854,74.361c0.813,35.189,1.653,71.575-38.293,78.44
				c-32.389,5.684-65.763-22.921-98.038-50.589c-21.168-18.146-43.057-36.908-64.247-45.536
				c-23.954-9.754-43.728-5.601-62.229,13.07c-19.627,19.807-29.44,51.712-38.932,82.567c-10.846,35.262-21.09,68.567-45.054,76.527
				C-60.161,448.216-64.007,448.815-68.113,448.815z"/>
		</g>
		<g>
			<path style="fill:#F08D91;" d="M-66.755,452.655c-15.716,0-35.225-8.295-59.153-25.084c-0.227-0.158-0.281-0.471-0.122-0.696
				c0.159-0.227,0.472-0.281,0.696-0.122c30.662,21.513,53.921,28.979,71.109,22.823c24.345-8.72,34.09-43.78,44.407-80.9
				c9.336-33.593,18.99-68.328,40.145-88.944c19.224-18.733,40.224-22.309,64.205-10.942c21.266,10.083,42.821,30.742,63.668,50.721
				c31.426,30.118,63.917,61.249,95.74,56.382c18.397-2.821,29.159-11.899,33.868-28.57c4.17-14.76,2.923-33.762,1.717-52.137
				c-2.24-34.145-4.558-69.451,27.657-79.423c18.976-5.876,41.683,0.71,63.64,7.078c17.754,5.15,34.513,10.014,49.329,8.752
				c23.935-2.04,42.595-10.912,55.462-26.371c16.743-20.115,23.574-51.404,19.753-90.484c-0.026-0.275,0.175-0.52,0.449-0.547
				c0.271-0.009,0.521,0.175,0.547,0.449c3.847,39.352-3.063,70.896-19.98,91.222c-13.045,15.672-31.936,24.664-56.146,26.728
				c-14.995,1.281-31.845-3.611-49.691-8.787c-21.817-6.328-44.377-12.869-63.066-7.084c-31.46,9.738-29.17,44.645-26.954,78.402
				c2.434,37.076,4.949,75.414-36.431,81.761c-32.312,4.962-64.983-26.361-96.585-56.648
				c-20.788-19.924-42.285-40.525-63.404-50.538c-23.886-11.325-43.93-7.907-63.079,10.755
				c-20.96,20.427-30.578,55.03-39.879,88.495c-10.388,37.377-20.2,72.681-45.033,81.575
				C-57.86,451.941-62.146,452.655-66.755,452.655z"/>
		</g>
		<g>
			<path style="fill:#ED7A7E;" d="M-65.371,456.565c-16.018,0-35.914-8.149-60.3-24.63c-0.229-0.154-0.289-0.465-0.134-0.694
				c0.155-0.229,0.467-0.288,0.694-0.134c31.896,21.556,55.966,28.762,73.584,22.027c25.274-9.659,34.613-46.802,44.5-86.126
				c9.098-36.18,18.504-73.592,40.973-94.77c12.277-11.572,24.752-16.999,38.24-16.594c30.57,0.926,60.629,32.907,89.697,63.836
				c30.748,32.715,62.547,66.535,94.235,62.307c19.025-2.543,29.847-11.806,34.058-29.153c3.732-15.379,1.647-35.373-0.368-54.708
				c-3.734-35.826-7.597-72.871,24.752-83.622c19.202-6.382,42.92,0.949,65.855,8.044c17.386,5.376,33.792,10.44,47.952,9.756
				c25.307-1.252,45.147-9.935,58.972-25.809c17.503-20.098,24.939-51.201,21.504-89.949c-0.025-0.274,0.179-0.518,0.454-0.542
				c0.266-0.023,0.517,0.179,0.542,0.454c3.459,39.024-4.061,70.386-21.746,90.693c-14.01,16.087-34.088,24.886-59.677,26.15
				c-14.318,0.716-30.823-4.395-48.297-9.799c-22.783-7.046-46.343-14.332-65.245-8.05c-31.585,10.497-27.766,47.137-24.071,82.569
				c4.061,38.954,8.26,79.235-34.552,84.955c-32.209,4.307-64.175-29.715-95.097-62.612c-28.929-30.779-58.843-62.607-88.999-63.52
				c-13.174-0.378-25.448,4.939-37.525,16.322c-22.256,20.977-31.626,58.244-40.688,94.285
				c-9.952,39.583-19.353,76.971-45.112,86.816C-55.519,455.731-60.246,456.565-65.371,456.565z"/>
		</g>
		<g>
			<path style="fill:#EB676C;" d="M-63.968,460.537c-16.336,0-36.627-8.024-61.466-24.236c-0.231-0.151-0.296-0.461-0.146-0.692
				c0.15-0.23,0.461-0.295,0.692-0.146c33.132,21.626,58.022,28.586,76.095,21.275c26.248-10.615,35.195-49.912,44.667-91.515
				c8.819-38.737,17.939-78.793,41.689-100.474c12.531-11.44,25.143-16.584,38.559-15.75c31.07,1.949,60.775,36.817,89.5,70.536
				c30.054,35.277,61.119,71.773,92.676,68.147c12.446-1.424,21.333-5.777,27.169-13.31c12.604-16.268,8.539-45.428,4.608-73.628
				c-5.232-37.538-10.644-76.354,21.863-87.899c20.454-7.262,46.642,1.148,71.968,9.287c15.559,4.999,30.255,9.721,42.715,10.486
				c25.059,1.54,45.281-5.361,60.147-20.504c19.728-20.097,28.803-53.536,25.552-94.158c-0.022-0.275,0.183-0.517,0.458-0.538
				c0.269-0.016,0.517,0.183,0.538,0.458c3.275,40.916-5.899,74.632-25.834,94.939c-15.078,15.361-35.581,22.356-60.922,20.802
				c-12.586-0.772-27.34-5.514-42.96-10.532c-25.165-8.086-51.187-16.448-71.328-9.297c-31.737,11.272-26.384,49.678-21.207,86.819
				c3.96,28.405,8.055,57.777-4.809,74.378c-6.009,7.756-15.117,12.234-27.846,13.691c-1.493,0.171-2.987,0.254-4.478,0.254
				c-30.508,0.002-60.257-34.922-89.072-68.747c-28.591-33.561-58.154-68.264-88.802-70.187
				c-13.127-0.818-25.501,4.244-37.822,15.49c-23.519,21.47-32.603,61.37-41.388,99.957c-9.532,41.865-18.535,81.408-45.268,92.221
				C-53.144,459.577-58.32,460.537-63.968,460.537z"/>
		</g>
		<g>
			<path style="fill:#E85459;" d="M-62.55,464.56c-16.667,0-37.356-7.915-62.648-23.895c-0.234-0.147-0.304-0.456-0.156-0.689
				c0.148-0.235,0.459-0.301,0.69-0.156c34.37,21.719,60.093,28.442,78.635,20.562c27.263-11.589,35.826-53.1,44.892-97.048
				c8.513-41.266,17.314-83.938,42.319-106.072c12.769-11.306,25.482-16.188,38.85-14.944c31.611,2.95,60.975,40.779,89.371,77.362
				c30.699,39.55,59.69,76.928,91.074,73.901c12.711-1.217,21.702-5.487,27.487-13.054c12.706-16.618,7.452-47.256,2.371-76.884
				c-6.735-39.278-13.7-79.895,18.982-92.251c20.546-7.769,47.699,1.533,73.957,10.528c15.243,5.221,29.641,10.152,41.561,11.217
				c26.391,2.354,47.847-4.375,63.759-20.015c20.14-19.794,30.055-53.893,27.203-93.554c-0.02-0.275,0.188-0.515,0.463-0.535
				c0.265-0.023,0.515,0.188,0.535,0.463c2.872,39.954-7.151,74.34-27.5,94.34c-16.131,15.854-37.849,22.685-64.55,20.297
				c-12.041-1.075-26.494-6.026-41.795-11.268c-26.092-8.938-53.071-18.179-73.28-10.538c-31.91,12.064-25.017,52.268-18.349,91.146
				c5.116,29.84,10.408,60.695-2.563,77.66c-5.964,7.8-15.184,12.197-28.187,13.442c-1.222,0.117-2.444,0.174-3.659,0.175
				c-30.507,0.004-58.609-36.208-88.301-74.459c-28.266-36.415-57.494-74.069-88.674-76.979
				c-13.088-1.223-25.544,3.586-38.095,14.696C17.09,279.924,8.322,322.43-0.157,363.535c-9.12,44.212-17.734,85.972-45.48,97.766
				C-50.74,463.471-56.369,464.56-62.55,464.56z"/>
		</g>
		<g>
			<path style="fill:#E64147;" d="M-61.122,468.627c-17.008,0-38.099-7.82-63.841-23.598c-0.235-0.145-0.309-0.452-0.165-0.689
				c0.146-0.236,0.452-0.309,0.688-0.164c35.613,21.828,62.172,28.333,81.199,19.879c28.309-12.575,36.493-56.352,45.157-102.698
				c8.184-43.772,16.646-89.035,42.883-111.587c12.993-11.167,25.786-15.803,39.122-14.176c32.188,3.933,61.22,44.798,89.295,84.318
				c29.952,42.163,58.282,81.971,89.439,79.564c12.968-1.005,22.063-5.184,27.804-12.775c12.814-16.941,6.649-47.629,0.121-80.118
				c-8.249-41.059-16.779-83.515,16.117-96.649c19.729-7.949,46.54,1.904,72.465,11.431c16.215,5.959,31.531,11.587,43.856,12.285
				c29.313,1.658,52.765-6.137,69.673-23.173c19.573-19.722,29.014-51.435,26.583-89.299c-0.018-0.275,0.191-0.514,0.467-0.531
				c0.259-0.031,0.514,0.191,0.531,0.467c2.449,38.153-7.094,70.141-26.871,90.067c-17.119,17.249-40.833,25.15-70.439,23.467
				c-12.474-0.706-27.857-6.359-44.145-12.345c-25.748-9.461-52.37-19.242-71.748-11.441
				c-32.124,12.827-23.677,54.868-15.509,95.524c6.573,32.716,12.782,63.618-0.304,80.919c-5.925,7.833-15.255,12.141-28.523,13.169
				c-0.933,0.072-1.864,0.108-2.791,0.108c-30.644,0.002-58.305-38.938-87.541-80.091c-27.949-39.343-56.851-80.025-88.601-83.904
				c-13.046-1.6-25.583,2.967-38.349,13.94c-25.972,22.323-34.4,67.41-42.552,111.014c-8.715,46.611-16.945,90.639-45.735,103.428
				C-48.315,467.404-54.4,468.627-61.122,468.627z"/>
		</g>
		<g>
			<path style="fill:#E32E35;" d="M-59.685,472.732c-17.356,0-38.851-7.737-65.042-23.34c-0.237-0.142-0.315-0.448-0.174-0.686
				c0.143-0.239,0.45-0.315,0.686-0.174c36.859,21.958,64.266,28.247,83.786,19.227c29.381-13.577,37.188-59.662,45.454-108.453
				c7.837-46.258,15.939-94.09,43.394-117.026c13.203-11.03,26.077-15.428,39.379-13.443c32.798,4.899,61.5,48.874,89.257,91.401
				c29.196,44.733,56.768,86.986,87.778,85.137c13.233-0.791,22.44-4.874,28.147-12.482c12.918-17.223,5.614-49.279-2.118-83.218
				c-9.761-42.845-19.855-87.148,13.214-101.196c19.882-8.421,47.726,2.337,74.651,12.736c15.803,6.105,30.729,11.87,42.507,12.951
				c30.158,2.766,55.485-4.833,73.24-21.982c20.394-19.699,30.438-51.446,28.277-89.394c-0.016-0.275,0.195-0.512,0.471-0.527
				c0.314-0.023,0.513,0.195,0.527,0.471c2.177,38.242-7.974,70.265-28.58,90.169c-17.972,17.358-43.566,25.055-74.027,22.26
				c-11.916-1.094-26.905-6.884-42.775-13.014c-25.494-9.848-54.395-21.009-73.9-12.75c-32.299,13.721-22.3,57.61-12.629,100.055
				c7.785,34.171,15.139,66.446,1.942,84.039c-5.895,7.858-15.344,12.072-28.887,12.881c-0.677,0.041-1.356,0.061-2.03,0.061
				c-30.746,0.005-57.914-41.628-86.647-85.649c-27.636-42.342-56.213-86.126-88.567-90.958
				c-12.996-1.941-25.618,2.385-38.59,13.222c-27.17,22.7-35.242,70.347-43.048,116.426C-2.3,408.532-10.149,454.87-40.01,468.667
				C-45.868,471.374-52.414,472.732-59.685,472.732z"/>
		</g>
		<g>
			<path style="fill:#E11B22;" d="M-58.194,476.889c-17.725,0-39.639-7.671-66.298-23.133c-0.239-0.139-0.32-0.444-0.182-0.684
				c0.139-0.241,0.446-0.32,0.684-0.182c38.132,22.115,66.409,28.204,86.454,18.609c30.503-14.6,37.945-63.065,45.825-114.375
				c7.473-48.66,15.2-98.978,43.746-122.333c13.433-10.851,26.411-14.983,39.679-12.636c33.47,5.92,61.807,53.058,89.211,98.644
				c27.968,46.521,54.411,90.508,84.607,90.508c0.492,0,0.983-0.012,1.478-0.035c13.497-0.5,22.817-4.426,28.497-12.002
				c13.031-17.383,4.593-50.823-4.34-86.228c-11.296-44.765-22.976-91.053,10.287-106.02c19.811-8.804,49.64,3.303,75.956,13.983
				c15.712,6.377,30.553,12.4,42.032,13.676c30.893,4.413,57.211-2.376,76.128-19.63c21.704-19.795,32.592-51.988,30.659-90.65
				c-0.014-0.276,0.198-0.511,0.474-0.524c0.305-0.048,0.512,0.199,0.524,0.474c1.949,38.967-9.055,71.44-30.983,91.44
				c-19.145,17.46-45.743,24.334-76.927,19.883c-11.603-1.289-26.505-7.338-42.283-13.741
				c-26.132-10.606-55.752-22.631-75.172-13.997c-32.496,14.623-20.921,60.498-9.726,104.862
				c8.993,35.642,17.487,69.309,4.17,87.072c-5.872,7.833-15.441,11.89-29.255,12.401c-31.439,1.51-58.403-43.414-86.983-90.957
				c-27.289-45.394-55.508-92.333-88.529-98.174c-12.958-2.292-25.681,1.771-38.873,12.427
				c-28.247,23.111-35.944,73.235-43.389,121.709C1.356,408.855-6.125,457.574-37.104,472.402
				C-43.345,475.39-50.362,476.889-58.194,476.889z"/>
		</g>
	</g>
</g>
</svg>
