<?xml version="1.0" encoding="UTF-8" standalone="no"?>
<!-- Created with Inkscape (http://www.inkscape.org/) -->

<svg
   width="210mm"
   height="297mm"
   viewBox="0 0 210 297"
   version="1.1"
   id="svg1"
   xml:space="preserve"
   inkscape:version="1.3 (0e150ed6c4, 2023-07-21)"
   sodipodi:docname="logo.svg"
   xmlns:inkscape="http://www.inkscape.org/namespaces/inkscape"
   xmlns:sodipodi="http://sodipodi.sourceforge.net/DTD/sodipodi-0.dtd"
   xmlns:xlink="http://www.w3.org/1999/xlink"
   xmlns="http://www.w3.org/2000/svg"
   xmlns:svg="http://www.w3.org/2000/svg"><sodipodi:namedview
     id="namedview1"
     pagecolor="#ffffff"
     bordercolor="#000000"
     borderopacity="0.25"
     inkscape:showpageshadow="2"
     inkscape:pageopacity="0.0"
     inkscape:pagecheckerboard="0"
     inkscape:deskcolor="#d1d1d1"
     inkscape:document-units="mm"
     showguides="true"
     inkscape:zoom="0.73139029"
     inkscape:cx="300.11336"
     inkscape:cy="558.52532"
     inkscape:window-width="1920"
     inkscape:window-height="1017"
     inkscape:window-x="-8"
     inkscape:window-y="-8"
     inkscape:window-maximized="1"
     inkscape:current-layer="layer1" /><defs
     id="defs1"><linearGradient
       id="linearGradient8"
       inkscape:collect="always"><stop
         style="stop-color:#2fc5dd;stop-opacity:1;"
         offset="0"
         id="stop8" /><stop
         style="stop-color:#5b7aef;stop-opacity:1;"
         offset="1"
         id="stop9" /></linearGradient><linearGradient
       id="linearGradient6"
       inkscape:collect="always"><stop
         style="stop-color:#4f92e3;stop-opacity:1;"
         offset="0"
         id="stop6" /><stop
         style="stop-color:#23e0d9;stop-opacity:1;"
         offset="1"
         id="stop7" /></linearGradient><linearGradient
       id="linearGradient4"
       inkscape:collect="always"><stop
         style="stop-color:#f4848a;stop-opacity:1;"
         offset="0"
         id="stop4" /><stop
         style="stop-color:#f7ae85;stop-opacity:1;"
         offset="0.33753943"
         id="stop11" /><stop
         style="stop-color:#f9c687;stop-opacity:1;"
         offset="0.62776023"
         id="stop10" /><stop
         style="stop-color:#fbe38b;stop-opacity:1;"
         offset="1"
         id="stop5" /></linearGradient><linearGradient
       inkscape:collect="always"
       xlink:href="#linearGradient4"
       id="linearGradient5"
       x1="111.72257"
       y1="98.493759"
       x2="111.48228"
       y2="181.98392"
       gradientUnits="userSpaceOnUse" /><linearGradient
       inkscape:collect="always"
       xlink:href="#linearGradient6"
       id="linearGradient7"
       x1="125.94485"
       y1="87.883629"
       x2="125.86663"
       y2="103.74314"
       gradientUnits="userSpaceOnUse" /><linearGradient
       inkscape:collect="always"
       xlink:href="#linearGradient8"
       id="linearGradient9"
       x1="102.16509"
       y1="191.17476"
       x2="102.40392"
       y2="215.53958"
       gradientUnits="userSpaceOnUse" /></defs><g
     inkscape:label="Layer 1"
     inkscape:groupmode="layer"
     id="layer1"><path
       id="path1"
       style="fill:url(#linearGradient5);stroke-width:0.264583;fill-opacity:1"
       d="m 130.88139,96.750121 -0.0904,2.53214 c 0,0 1.94432,0.0904 2.26085,0.0904 0.31653,0 1.67328,-0.0904 1.67328,-0.0904 l 1.03973,0.22634 1.22111,0.542609 0.85887,0.72347 0.94981,1.0852 0.58808,0.72347 -0.0455,1.49242 -0.0904,0.99477 -0.31626,0.72347 -0.40721,0.76843 -0.72347,0.67851 -0.58756,0.45217 -0.99529,0.72347 -70.677339,0.045 -0.76895,0.36225 -0.76843,0.67799 -0.63303,0.72347 -0.54312,1.17564 v 1.04025 l 0.0455,0.85886 0.5426,0.63355 0.72347,0.90434 1.17564,0.81391 h 29.61887 l 1.53737,0.8139 1.13016,0.85886 0.49765,1.13068 0.0904,1.04025 -0.40721,1.44694 -0.58756,0.90434 -1.98954,1.13016 -42.86819,0.13591 -0.67799,0.49713 -1.08521,0.63355 -0.63303,0.58756 -0.31678,0.85938 -0.31626,0.90434 v 1.3565 l 0.40669,0.76895 0.81391,1.03973 0.8139,0.36173 27.76472,0.18087 1.22111,0.13591 0.9493,0.2713 0.58807,0.45217 0.45217,0.49713 0.678,0.8139 0.36173,0.72347 v 1.35702 l -0.2713,1.17564 -0.40669,0.63304 -0.40721,0.76843 -1.08521,0.76894 -0.85886,0.36174 c 0,0 -4.34133,-0.0904 -4.5222,-0.0904 -0.18088,0 -1.67276,0.0455 -1.94407,0.0455 h -1.17616 c -0.27131,0 -0.8139,0.36173 -0.8139,0.36173 l -1.35651,1.13017 -0.63303,0.63303 -0.27131,0.94982 0.0904,1.44694 0.45217,0.76894 1.40198,1.26608 0.49713,0.45216 c 0,0 8.81777,0.045 9.49606,0.045 0.67829,0 3.5274,-0.045 4.07003,-0.045 0.54263,0 1.08519,0.18091 1.35651,0.27131 0.27131,0.0904 1.13016,0.58756 1.13016,0.58756 l 1.26659,1.44694 c 0,0 0.4067,0.99501 0.4067,1.31154 0,0.31654 -0.045,0.90434 -0.045,0.90434 l -0.58808,0.94981 -0.63304,1.08521 -1.67328,0.8139 -23.78511,0.0904 -1.85415,0.31626 -0.678,0.18086 -0.8139,0.45217 -0.81442,0.67852 -0.58756,0.67851 -0.18087,0.94929 0.045,0.94982 c 0,0 0.13565,0.49737 0.18087,0.8139 0.0452,0.31654 0.18086,0.45189 0.2713,0.67799 0.0904,0.2261 0.72398,0.67852 0.72398,0.67852 l 1.31104,0.94981 c 0,0 37.3964,-0.0455 37.71294,-0.0455 0.31653,0 1.04023,0.13567 1.49241,0.18087 0.452199,0.0452 0.677979,0.22608 1.130169,0.36174 0.4522,0.13565 0.40694,0.27154 0.72347,0.49764 0.31654,0.2261 0.58808,0.45217 0.58808,0.45217 l 0.67799,0.72347 c 0,0 0.22635,0.49711 0.22635,0.85886 0,0.36176 -0.0904,1.17616 -0.0904,1.17616 l -0.2713,1.31103 -0.49764,0.58808 -0.85886,0.72347 -1.04025,0.49712 -34.818549,-0.13539 c 0,0 -1.40197,0.67798 -1.58285,0.85886 -0.18087,0.18086 -0.2713,0.13591 -0.2713,0.13591 0,0 -0.90459,0.76868 -1.04025,0.99477 -0.13565,0.2261 -0.0452,0.18111 -0.18087,0.67851 -0.13566,0.49741 -0.045,0.63303 -0.045,0.90434 0,0.27132 0.0452,0.4519 0.0904,0.76843 0.0452,0.31654 0.13539,0.54284 0.22583,0.85938 0.0904,0.31653 0.1359,0.36171 0.31677,0.72347 0.18088,0.36175 0.36174,0.49764 0.36174,0.49764 l 0.40721,0.31626 1.40146,0.72347 c 0,0 12.84259,0.27131 13.65653,0.27131 h 3.21014 c 0.94961,0 0.99525,-0.0452 1.8092,-0.0904 0.81394,-0.0452 0.99477,0 0.99477,0 l 1.67276,0.45217 1.08521,0.40721 c 0,0 0.58832,0.40695 0.81442,0.63304 0.22609,0.2261 0.27104,0.36173 0.31626,0.5426 0.0452,0.18088 0.27155,0.76893 0.31677,1.04025 0.0452,0.27131 0.0904,0.63276 0.0904,0.85886 0,0.2261 -0.0452,0.58806 -0.0904,0.76894 -0.0452,0.18088 -0.18086,0.45217 -0.18086,0.45217 l -0.2713,0.49713 -0.45217,0.58808 -0.49765,0.63303 45.445289,0.22583 c 0,0 1.26606,-0.0452 1.44694,-0.0904 0.18088,-0.0452 1.44694,-0.54261 1.44694,-0.54261 l 1.31155,-0.76843 0.76843,-0.72347 c 0,0 0.81389,-0.90432 0.99477,-1.0852 0.18087,-0.18088 0.54286,-0.76867 0.67851,-0.99477 0.13566,-0.2261 0.36174,-0.63355 0.36174,-0.63355 l 0.45217,-0.81391 0.58808,-1.71824 -0.0904,-71.76306 c 0,0 -0.0905,-1.71822 -0.18087,-1.98954 -0.0904,-0.27131 -0.58807,-0.994779 -0.58807,-0.994779 l -0.81391,-1.17563 -0.90433,-0.67852 c 0,0 -1.04024,-0.63277 -1.31155,-0.76842 -0.27132,-0.13566 -0.76843,-0.31678 -0.76843,-0.31678 l -0.81391,-0.13539 z m -10.7518,0.29352 -38.849829,0.22376 -0.54312,0.28784 -0.1602,0.31987 -0.0956,0.2558 v 0.3514 0.47956 l 0.22376,0.28784 0.19172,0.22375 0.2558,0.19224 0.0961,0.12764 38.913389,-0.032 z m -60.848489,41.023849 -0.65525,0.14366 -0.20774,0.0801 -0.55966,0.4315 c 0,0 -0.15978,0.14382 -0.20774,0.22376 -0.048,0.0799 -0.31988,0.39997 -0.31988,0.39997 l -0.28783,0.39946 -0.28784,0.36794 c 0,0 -0.22376,0.38357 -0.22376,0.44752 0,0.0639 -0.19172,0.51159 -0.19172,0.51159 v 0.30386 c 0,0 -0.032,0.57532 -0.032,0.65526 0,0.0799 0.14366,0.75153 0.14366,0.83147 0,0.0799 0.12816,0.28784 0.12816,0.28784 l 0.1757,0.39946 0.12816,0.1757 0.30385,0.31987 c 0,0 0.0797,0.12781 0.12764,0.20774 0.048,0.0799 0.27189,0.22389 0.30386,0.28784 0.032,0.064 0.27182,0.31988 0.27182,0.31988 l 0.28784,0.22376 c 0,0 0.14385,0.0962 0.23978,0.12816 0.0959,0.032 0.39958,0.0956 0.46353,0.11162 0.064,0.016 0.19205,2e-5 0.35192,0.016 0.15987,0.016 1.19889,0.016 1.19889,0.016 0,0 0.25593,-0.016 0.31988,-0.016 0.064,0 0.91106,-0.016 0.91106,-0.016 h 0.55965 c 0.15988,0 0.54364,-0.032 0.54364,-0.032 0,0 0.3836,-0.12774 0.46354,-0.1757 0.0799,-0.048 0.47984,-0.25596 0.62373,-0.3359 0.14389,-0.0799 0.41554,-0.25544 0.44752,-0.33538 0.032,-0.0799 0.55965,-0.49558 0.55965,-0.49558 l 0.1757,-0.24029 c 0,0 0.11175,-0.20751 0.1757,-0.3514 0.064,-0.14389 0.12777,-0.28767 0.19172,-0.46354 0.064,-0.17586 0.11217,-0.31975 0.12816,-0.5116 0.016,-0.19185 0.016,-0.31974 0.032,-0.51159 0.016,-0.19185 0.016,-0.36765 0.016,-0.47956 v -0.36794 l -0.23978,-0.60771 c 0,0 -0.17576,-0.33551 -0.20774,-0.39946 -0.032,-0.0639 -0.14427,-0.19188 -0.19223,-0.27182 -0.048,-0.0799 -0.1759,-0.14395 -0.27182,-0.28784 -0.0959,-0.14389 -0.55914,-0.51159 -0.55914,-0.51159 l -0.30386,-0.19172 -0.39997,-0.2558 -0.22376,-0.1602 -0.28784,-0.1757 -0.1757,-0.0796 z m -6.84196,29.56822 -0.65577,0.14418 -0.20774,0.0796 -0.55966,0.4315 c 0,0 -0.15978,0.14434 -0.20774,0.22428 -0.048,0.0799 -0.31936,0.39945 -0.31936,0.39945 l -0.28783,0.39946 -0.28784,0.36794 c 0,0 -0.22376,0.38357 -0.22376,0.44752 0,0.0639 -0.19224,0.51159 -0.19224,0.51159 v 0.30386 c 0,0 -0.0315,0.57584 -0.0315,0.65578 0,0.0799 0.14366,0.75101 0.14366,0.83095 0,0.0799 0.12764,0.28784 0.12764,0.28784 l 0.17622,0.39998 0.12764,0.1757 0.30386,0.31987 c 0,0 0.0802,0.12781 0.12816,0.20774 0.048,0.0799 0.27136,0.22389 0.30334,0.28784 0.032,0.064 0.27181,0.31988 0.27181,0.31988 l 0.28784,0.22376 c 0,0 0.14385,0.0956 0.23978,0.12764 0.0959,0.032 0.4001,0.0961 0.46405,0.11213 0.0639,0.016 0.19153,2e-5 0.3514,0.016 0.15988,0.016 1.1989,0.016 1.1989,0.016 0,0 0.25592,-0.016 0.31987,-0.016 0.064,0 0.91158,-0.016 0.91158,-0.016 h 0.55914 c 0.15987,0 0.54363,-0.032 0.54363,-0.032 0,0 0.38412,-0.12825 0.46406,-0.17621 0.0799,-0.048 0.47933,-0.25544 0.62321,-0.33538 0.14389,-0.0799 0.41555,-0.25596 0.44752,-0.3359 0.032,-0.0799 0.55966,-0.49558 0.55966,-0.49558 l 0.1757,-0.23977 c 0,0 0.11226,-0.20803 0.17621,-0.35192 0.064,-0.14389 0.12777,-0.28767 0.19172,-0.46354 0.064,-0.17586 0.11217,-0.31975 0.12816,-0.5116 0.016,-0.19184 0.0155,-0.31974 0.0315,-0.51159 0.016,-0.19185 0.016,-0.36765 0.016,-0.47956 v -0.36794 l -0.23978,-0.60719 c 0,0 -0.17576,-0.33603 -0.20773,-0.39998 -0.032,-0.0639 -0.14376,-0.19188 -0.19172,-0.27182 -0.048,-0.0799 -0.1759,-0.14343 -0.27182,-0.28732 -0.0959,-0.14389 -0.55966,-0.51159 -0.55966,-0.51159 l -0.30386,-0.19224 -0.39945,-0.2558 -0.22376,-0.15968 -0.28784,-0.1757 -0.17622,-0.0801 z" /><path
       style="fill:url(#linearGradient7);stroke-width:0.264583"
       d="m 119.78696,87.673915 5.51674,5.47153 5.60719,-5.42631 0.13566,16.233715 -11.30481,-0.0452 z"
       id="path2" /><text
       xml:space="preserve"
       style="font-style:normal;font-variant:normal;font-weight:normal;font-stretch:normal;font-size:26.4583px;font-family:'Segoe UI';-inkscape-font-specification:'Segoe UI';fill:url(#linearGradient9);stroke-width:0.264583"
       x="63.66869"
       y="209.66653"
       id="text7"><tspan
         sodipodi:role="line"
         id="tspan7"
         style="font-style:normal;font-variant:normal;font-weight:normal;font-stretch:normal;font-size:26.4583px;font-family:'Segoe UI';-inkscape-font-specification:'Segoe UI';stroke-width:0.264583;fill:url(#linearGradient9)"
         x="63.66869"
         y="209.66653">Наука</tspan></text></g></svg>
